<svg xmlns="http://www.w3.org/2000/svg" viewBox="0 0 2017 335" width="2017" height="335" role="img" aria-label="Starpets logo">
  <defs>
    <linearGradient id="starpets-orange" x1="18" y1="30" x2="382" y2="326" gradientUnits="userSpaceOnUse">
      <stop offset="0" stop-color="#FFD866"/>
      <stop offset="0.42" stop-color="#FFB20F"/>
      <stop offset="1" stop-color="#FF8A00"/>
    </linearGradient>
  </defs>
  <g id="planet-and-stars" fill="url(#starpets-orange)" fill-rule="evenodd" clip-rule="evenodd">
    <path d="M 420 87 L 414 81 L 413 81 L 412 80 L 410 80 L 409 79 L 405 79 L 404 78 L 385 78 L 384 79 L 377 79 L 376 80 L 371 80 L 370 81 L 365 81 L 364 82 L 361 82 L 360 83 L 355 83 L 354 84 L 351 84 L 350 85 L 347 85 L 346 86 L 342 86 L 341 87 L 338 87 L 337 88 L 336 88 L 334 86 L 334 82 L 333 81 L 333 78 L 332 77 L 332 74 L 331 73 L 331 70 L 330 69 L 330 67 L 329 66 L 329 64 L 328 63 L 328 61 L 326 58 L 326 56 L 324 53 L 324 51 L 323 50 L 323 49 L 322 48 L 322 47 L 321 46 L 321 45 L 320 44 L 320 43 L 318 41 L 318 40 L 317 39 L 317 38 L 315 36 L 315 35 L 313 33 L 313 32 L 310 29 L 310 28 L 307 25 L 307 24 L 304 21 L 304 20 L 301 17 L 301 18 L 303 20 L 303 21 L 304 22 L 304 23 L 306 25 L 306 26 L 307 27 L 307 28 L 308 29 L 308 30 L 309 31 L 309 32 L 310 33 L 310 34 L 312 37 L 312 39 L 313 40 L 313 41 L 314 42 L 314 44 L 315 45 L 315 49 L 316 50 L 316 54 L 317 55 L 317 63 L 318 64 L 318 81 L 317 82 L 317 87 L 316 88 L 315 88 L 311 84 L 310 84 L 307 81 L 306 81 L 302 77 L 301 77 L 299 75 L 298 75 L 296 73 L 295 73 L 294 72 L 293 72 L 291 70 L 290 70 L 289 69 L 288 69 L 287 68 L 286 68 L 285 67 L 284 67 L 283 66 L 282 66 L 281 65 L 280 65 L 279 64 L 278 64 L 275 62 L 273 62 L 272 61 L 271 61 L 268 59 L 266 59 L 265 58 L 263 58 L 262 57 L 260 57 L 259 56 L 256 56 L 255 55 L 253 55 L 250 53 L 250 50 L 253 47 L 253 46 L 277 22 L 275 24 L 274 24 L 273 25 L 272 25 L 270 27 L 269 27 L 266 30 L 265 30 L 262 33 L 261 33 L 259 35 L 258 35 L 255 38 L 254 38 L 252 40 L 251 40 L 248 43 L 247 43 L 239 51 L 229 51 L 228 50 L 201 50 L 200 51 L 192 51 L 191 52 L 186 52 L 185 53 L 181 53 L 180 54 L 177 54 L 176 55 L 173 55 L 172 56 L 170 56 L 169 57 L 167 57 L 166 58 L 164 58 L 163 59 L 161 59 L 160 60 L 159 60 L 158 61 L 157 61 L 156 60 L 155 60 L 154 59 L 153 59 L 152 58 L 151 58 L 150 57 L 149 57 L 146 55 L 144 55 L 141 53 L 139 53 L 136 51 L 134 51 L 131 49 L 129 49 L 128 48 L 127 48 L 126 47 L 124 47 L 121 45 L 118 45 L 119 45 L 120 46 L 121 46 L 123 48 L 124 48 L 125 49 L 126 49 L 127 50 L 128 50 L 130 52 L 131 52 L 132 53 L 133 53 L 135 55 L 136 55 L 137 56 L 138 56 L 141 59 L 142 59 L 145 62 L 146 62 L 147 63 L 147 65 L 146 66 L 145 66 L 144 67 L 143 67 L 142 68 L 141 68 L 139 70 L 138 70 L 137 71 L 136 71 L 134 73 L 133 73 L 132 74 L 131 74 L 128 77 L 127 77 L 125 79 L 124 79 L 121 82 L 120 82 L 113 89 L 112 89 L 104 97 L 104 98 L 97 105 L 97 106 L 94 109 L 92 109 L 90 106 L 90 103 L 89 102 L 89 99 L 88 98 L 88 94 L 87 93 L 87 89 L 86 88 L 86 64 L 87 63 L 87 60 L 88 59 L 88 55 L 89 54 L 89 52 L 90 51 L 90 49 L 91 48 L 91 46 L 92 45 L 92 44 L 91 45 L 91 47 L 89 49 L 89 51 L 88 52 L 88 53 L 87 54 L 87 55 L 85 58 L 85 60 L 84 61 L 84 63 L 82 66 L 82 68 L 81 69 L 81 73 L 80 74 L 80 76 L 79 77 L 79 81 L 78 82 L 78 88 L 77 89 L 77 99 L 76 100 L 76 115 L 77 116 L 77 130 L 78 131 L 78 139 L 76 142 L 76 144 L 75 145 L 75 147 L 74 148 L 74 150 L 73 151 L 73 153 L 72 154 L 72 157 L 71 158 L 71 161 L 70 162 L 70 166 L 69 167 L 69 173 L 68 174 L 68 186 L 67 187 L 67 196 L 68 197 L 68 199 L 67 200 L 66 200 L 64 202 L 63 202 L 62 203 L 61 203 L 59 205 L 58 205 L 56 207 L 55 207 L 54 208 L 53 208 L 51 210 L 50 210 L 47 213 L 46 213 L 44 215 L 43 215 L 41 217 L 40 217 L 38 219 L 37 219 L 35 221 L 34 221 L 30 225 L 29 225 L 26 228 L 25 228 L 13 240 L 13 241 L 10 244 L 10 245 L 9 246 L 9 247 L 7 250 L 7 259 L 8 260 L 8 262 L 13 267 L 14 267 L 17 269 L 19 269 L 20 270 L 25 270 L 26 271 L 38 271 L 39 270 L 49 270 L 50 269 L 55 269 L 56 268 L 61 268 L 62 267 L 66 267 L 67 266 L 71 266 L 72 265 L 75 265 L 76 264 L 80 264 L 81 263 L 83 263 L 84 262 L 90 262 L 91 261 L 94 261 L 95 260 L 98 260 L 99 259 L 102 259 L 103 258 L 106 258 L 107 257 L 109 257 L 110 256 L 113 256 L 114 255 L 116 255 L 117 254 L 120 254 L 121 253 L 123 253 L 124 252 L 126 252 L 129 250 L 131 250 L 132 249 L 134 249 L 135 248 L 137 248 L 140 246 L 142 246 L 145 244 L 147 244 L 148 243 L 149 243 L 150 242 L 151 242 L 154 240 L 156 240 L 157 239 L 158 239 L 159 238 L 160 238 L 163 236 L 165 236 L 166 235 L 167 235 L 168 234 L 169 234 L 170 233 L 171 233 L 172 232 L 173 232 L 174 231 L 175 231 L 178 229 L 180 229 L 181 228 L 182 228 L 183 227 L 184 227 L 185 226 L 186 226 L 187 225 L 188 225 L 189 224 L 190 224 L 191 223 L 192 223 L 193 222 L 194 222 L 195 221 L 196 221 L 197 220 L 198 220 L 199 219 L 200 219 L 201 218 L 202 218 L 203 217 L 204 217 L 206 215 L 207 215 L 208 214 L 209 214 L 210 213 L 211 213 L 212 212 L 213 212 L 214 211 L 215 211 L 217 209 L 218 209 L 219 208 L 220 208 L 221 207 L 222 207 L 224 205 L 225 205 L 238 192 L 238 191 L 241 188 L 241 187 L 242 186 L 242 185 L 243 184 L 243 183 L 245 181 L 245 180 L 246 179 L 246 177 L 248 174 L 248 171 L 249 170 L 249 168 L 250 167 L 250 164 L 251 163 L 251 158 L 252 157 L 252 137 L 251 136 L 251 132 L 250 131 L 250 130 L 251 129 L 252 129 L 257 134 L 257 135 L 268 146 L 269 146 L 272 149 L 273 149 L 275 151 L 276 151 L 278 153 L 279 153 L 280 154 L 281 154 L 282 155 L 283 155 L 284 156 L 285 156 L 286 157 L 287 157 L 290 159 L 292 159 L 293 160 L 296 160 L 297 161 L 299 161 L 300 162 L 303 162 L 304 163 L 308 163 L 309 164 L 332 164 L 333 165 L 333 166 L 331 168 L 330 168 L 326 172 L 325 172 L 320 177 L 320 178 L 315 183 L 315 184 L 313 186 L 313 187 L 311 189 L 311 190 L 310 191 L 310 192 L 309 193 L 309 194 L 307 197 L 307 199 L 305 202 L 305 204 L 304 205 L 304 208 L 303 209 L 303 214 L 302 215 L 302 233 L 303 234 L 303 239 L 304 240 L 304 242 L 303 243 L 302 243 L 298 239 L 298 238 L 288 228 L 287 228 L 284 225 L 283 225 L 281 223 L 280 223 L 278 221 L 277 221 L 276 220 L 275 220 L 274 219 L 273 219 L 271 217 L 269 217 L 266 215 L 264 215 L 263 214 L 261 214 L 260 213 L 257 213 L 256 212 L 253 212 L 252 211 L 246 211 L 245 210 L 242 210 L 240 212 L 239 212 L 236 215 L 235 215 L 231 219 L 230 219 L 222 227 L 221 227 L 219 229 L 219 230 L 208 241 L 208 242 L 202 248 L 202 249 L 193 258 L 193 259 L 189 263 L 189 264 L 185 268 L 185 269 L 183 271 L 183 272 L 181 274 L 181 275 L 179 277 L 179 278 L 177 280 L 177 281 L 175 283 L 175 284 L 173 286 L 173 287 L 172 288 L 172 289 L 171 290 L 171 291 L 169 293 L 169 294 L 168 295 L 168 296 L 167 297 L 167 298 L 165 300 L 165 301 L 164 302 L 164 303 L 163 304 L 163 305 L 162 306 L 162 307 L 161 308 L 161 309 L 159 312 L 159 314 L 158 315 L 158 316 L 157 317 L 157 318 L 156 319 L 156 320 L 157 320 L 158 321 L 160 321 L 163 323 L 165 323 L 166 324 L 168 324 L 169 325 L 171 325 L 172 326 L 175 326 L 176 327 L 179 327 L 180 328 L 184 328 L 185 329 L 189 329 L 190 330 L 197 330 L 198 331 L 231 331 L 232 330 L 239 330 L 240 329 L 244 329 L 245 328 L 249 328 L 250 327 L 253 327 L 254 326 L 256 326 L 257 325 L 260 325 L 261 324 L 263 324 L 264 323 L 266 323 L 267 322 L 268 322 L 269 321 L 271 321 L 274 319 L 276 319 L 277 318 L 278 318 L 279 317 L 280 317 L 281 316 L 282 316 L 283 315 L 284 315 L 285 314 L 286 314 L 287 313 L 288 313 L 289 312 L 290 312 L 292 310 L 293 310 L 295 308 L 296 308 L 297 307 L 298 307 L 300 305 L 301 305 L 303 303 L 304 303 L 308 299 L 309 299 L 315 293 L 316 293 L 325 284 L 325 283 L 332 276 L 332 275 L 335 272 L 335 271 L 337 269 L 337 268 L 339 266 L 339 265 L 341 263 L 341 262 L 342 261 L 342 260 L 344 258 L 344 257 L 345 256 L 345 255 L 346 254 L 346 253 L 347 252 L 347 251 L 348 250 L 348 249 L 349 248 L 349 247 L 351 244 L 351 242 L 352 241 L 352 239 L 354 236 L 354 234 L 355 233 L 355 231 L 356 230 L 356 227 L 357 226 L 357 224 L 358 223 L 358 219 L 359 218 L 359 214 L 360 213 L 360 206 L 361 205 L 361 176 L 360 175 L 360 169 L 359 168 L 359 163 L 358 162 L 358 159 L 357 158 L 357 155 L 356 154 L 356 152 L 357 151 L 358 151 L 360 149 L 361 149 L 362 148 L 363 148 L 365 146 L 366 146 L 367 145 L 368 145 L 370 143 L 371 143 L 373 141 L 374 141 L 376 139 L 377 139 L 378 138 L 379 138 L 381 136 L 382 136 L 385 133 L 386 133 L 388 131 L 389 131 L 391 129 L 392 129 L 395 126 L 396 126 L 399 123 L 400 123 L 405 118 L 406 118 L 414 110 L 414 109 L 417 106 L 417 105 L 418 104 L 418 103 L 420 101 L 420 99 L 421 98 L 421 90 L 420 89 Z
M 766 32 L 764 34 L 764 35 L 763 36 L 763 37 L 761 39 L 761 40 L 758 43 L 758 44 L 748 54 L 747 54 L 744 57 L 743 57 L 741 59 L 740 59 L 738 61 L 737 61 L 736 62 L 735 62 L 734 63 L 733 63 L 732 64 L 731 64 L 730 65 L 729 65 L 729 66 L 730 66 L 731 67 L 732 67 L 733 68 L 734 68 L 735 69 L 736 69 L 737 70 L 738 70 L 740 72 L 741 72 L 743 74 L 744 74 L 748 78 L 749 78 L 757 86 L 757 87 L 761 91 L 761 92 L 763 94 L 763 95 L 764 96 L 764 97 L 766 99 L 766 100 L 767 100 L 768 99 L 768 98 L 769 97 L 769 96 L 771 94 L 771 93 L 773 91 L 773 90 L 777 86 L 777 85 L 783 79 L 784 79 L 789 74 L 790 74 L 792 72 L 793 72 L 794 71 L 795 71 L 797 69 L 798 69 L 799 68 L 800 68 L 801 67 L 802 67 L 803 66 L 804 66 L 804 65 L 802 65 L 800 63 L 799 63 L 798 62 L 797 62 L 796 61 L 795 61 L 793 59 L 792 59 L 790 57 L 789 57 L 784 52 L 783 52 L 777 46 L 777 45 L 772 40 L 772 39 L 770 37 L 770 36 L 769 35 L 769 34 L 767 32 Z
M 1743 32 L 1741 34 L 1741 35 L 1739 37 L 1739 38 L 1738 39 L 1738 40 L 1735 43 L 1735 44 L 1722 57 L 1721 57 L 1719 59 L 1718 59 L 1716 61 L 1715 61 L 1714 62 L 1713 62 L 1711 64 L 1710 64 L 1709 65 L 1708 65 L 1708 66 L 1709 67 L 1710 67 L 1711 68 L 1712 68 L 1713 69 L 1714 69 L 1715 70 L 1716 70 L 1719 73 L 1720 73 L 1722 75 L 1723 75 L 1735 87 L 1735 88 L 1737 90 L 1737 91 L 1739 93 L 1739 94 L 1741 96 L 1741 97 L 1743 99 L 1744 98 L 1744 97 L 1746 95 L 1746 94 L 1748 92 L 1748 91 L 1750 89 L 1750 88 L 1755 83 L 1755 82 L 1757 80 L 1758 80 L 1764 74 L 1765 74 L 1767 72 L 1768 72 L 1770 70 L 1771 70 L 1773 68 L 1775 68 L 1777 66 L 1778 66 L 1778 65 L 1777 65 L 1776 64 L 1775 64 L 1774 63 L 1773 63 L 1771 61 L 1770 61 L 1768 59 L 1767 59 L 1765 57 L 1764 57 L 1759 52 L 1758 52 L 1756 50 L 1756 49 L 1750 43 L 1750 42 L 1748 40 L 1748 39 L 1746 37 L 1746 36 L 1744 34 L 1744 33 Z
M 403 95 L 403 97 L 401 99 L 401 100 L 394 107 L 393 107 L 388 112 L 387 112 L 384 115 L 383 115 L 380 118 L 379 118 L 377 120 L 376 120 L 374 122 L 373 122 L 371 124 L 370 124 L 367 127 L 366 127 L 365 128 L 364 128 L 362 130 L 361 130 L 359 132 L 358 132 L 357 133 L 356 133 L 354 135 L 353 135 L 352 136 L 351 136 L 349 134 L 349 133 L 348 132 L 348 131 L 347 130 L 347 129 L 346 128 L 346 127 L 344 125 L 344 124 L 343 123 L 343 122 L 342 121 L 342 120 L 340 118 L 340 117 L 339 116 L 339 115 L 336 112 L 336 108 L 337 107 L 337 105 L 339 103 L 341 103 L 342 102 L 346 102 L 347 101 L 349 101 L 350 100 L 354 100 L 355 99 L 358 99 L 359 98 L 363 98 L 364 97 L 368 97 L 369 96 L 375 96 L 376 95 L 380 95 L 381 94 L 390 94 L 391 93 L 400 93 Z
M 71 220 L 71 223 L 72 224 L 72 227 L 73 228 L 73 231 L 74 232 L 74 234 L 75 235 L 75 237 L 77 240 L 77 242 L 79 245 L 79 247 L 78 248 L 77 248 L 76 249 L 72 249 L 71 250 L 68 250 L 67 251 L 63 251 L 62 252 L 59 252 L 58 253 L 52 253 L 51 254 L 45 254 L 44 255 L 25 255 L 24 254 L 24 253 L 25 252 L 25 251 L 37 239 L 38 239 L 42 235 L 43 235 L 46 232 L 47 232 L 50 229 L 51 229 L 53 227 L 54 227 L 56 225 L 57 225 L 58 224 L 59 224 L 62 221 L 63 221 L 64 220 L 65 220 L 67 218 L 69 218 Z
M 126 159 L 127 159 L 132 164 L 132 165 L 135 168 L 136 168 L 138 170 L 139 170 L 140 171 L 141 171 L 142 172 L 143 172 L 146 174 L 150 174 L 151 175 L 158 175 L 159 176 L 159 177 L 157 179 L 156 179 L 147 188 L 147 189 L 145 192 L 145 194 L 144 195 L 144 197 L 143 198 L 143 207 L 142 208 L 141 208 L 138 205 L 138 204 L 133 199 L 132 199 L 130 197 L 129 197 L 127 195 L 125 195 L 122 193 L 118 193 L 117 192 L 109 192 L 108 191 L 108 190 L 110 188 L 111 188 L 114 185 L 115 185 L 116 184 L 116 183 L 120 179 L 120 178 L 122 175 L 122 173 L 124 170 L 124 164 L 125 163 L 125 160 Z"/>
  </g>
  <g id="wordmark" fill="#202020" fill-rule="evenodd" clip-rule="evenodd">
    <path d="M 1084 69 L 1084 292 L 1143 292 L 1143 221 L 1144 220 L 1165 220 L 1167 222 L 1167 223 L 1168 224 L 1169 227 L 1171 229 L 1171 230 L 1172 231 L 1172 232 L 1173 233 L 1174 236 L 1176 238 L 1176 239 L 1177 240 L 1178 243 L 1180 245 L 1180 246 L 1181 247 L 1181 248 L 1182 249 L 1183 252 L 1185 254 L 1185 255 L 1186 256 L 1187 259 L 1189 261 L 1189 262 L 1190 263 L 1190 264 L 1191 265 L 1192 268 L 1194 270 L 1194 271 L 1195 272 L 1196 275 L 1198 277 L 1198 278 L 1199 279 L 1199 280 L 1200 281 L 1201 284 L 1203 286 L 1203 287 L 1204 288 L 1204 289 L 1206 292 L 1269 292 L 1269 291 L 1268 290 L 1267 287 L 1265 285 L 1265 284 L 1264 283 L 1263 280 L 1261 278 L 1260 275 L 1258 273 L 1258 272 L 1257 271 L 1256 268 L 1254 266 L 1253 263 L 1251 261 L 1251 260 L 1250 259 L 1249 256 L 1247 254 L 1247 253 L 1246 252 L 1245 249 L 1243 247 L 1243 246 L 1242 245 L 1242 244 L 1240 242 L 1240 241 L 1239 240 L 1238 237 L 1236 235 L 1236 234 L 1235 233 L 1235 232 L 1233 230 L 1233 229 L 1232 228 L 1231 225 L 1229 223 L 1229 222 L 1228 221 L 1227 218 L 1225 216 L 1224 213 L 1222 211 L 1222 210 L 1224 208 L 1227 207 L 1229 205 L 1230 205 L 1233 202 L 1234 202 L 1247 189 L 1247 188 L 1250 185 L 1250 184 L 1252 182 L 1252 181 L 1253 180 L 1253 179 L 1254 178 L 1254 177 L 1255 176 L 1255 175 L 1257 172 L 1257 170 L 1258 169 L 1258 167 L 1259 166 L 1259 163 L 1260 162 L 1260 159 L 1261 158 L 1261 148 L 1262 147 L 1262 146 L 1261 145 L 1261 134 L 1260 133 L 1260 128 L 1259 127 L 1259 124 L 1258 123 L 1258 121 L 1256 118 L 1256 116 L 1255 115 L 1255 114 L 1254 113 L 1254 112 L 1253 111 L 1252 108 L 1250 106 L 1250 105 L 1248 103 L 1248 102 L 1244 98 L 1244 97 L 1238 91 L 1237 91 L 1232 86 L 1231 86 L 1228 83 L 1227 83 L 1225 81 L 1224 81 L 1223 80 L 1222 80 L 1221 79 L 1220 79 L 1219 78 L 1218 78 L 1217 77 L 1216 77 L 1213 75 L 1211 75 L 1210 74 L 1208 74 L 1207 73 L 1205 73 L 1204 72 L 1201 72 L 1200 71 L 1197 71 L 1196 70 L 1190 70 L 1189 69 Z
M 1292 69 L 1292 292 L 1351 292 L 1351 226 L 1352 225 L 1393 225 L 1394 224 L 1400 224 L 1401 223 L 1405 223 L 1406 222 L 1408 222 L 1409 221 L 1412 221 L 1413 220 L 1415 220 L 1416 219 L 1417 219 L 1420 217 L 1422 217 L 1423 216 L 1424 216 L 1426 214 L 1429 213 L 1431 211 L 1432 211 L 1434 209 L 1435 209 L 1439 205 L 1440 205 L 1449 196 L 1449 195 L 1452 192 L 1452 191 L 1456 186 L 1456 185 L 1457 184 L 1457 183 L 1458 182 L 1458 181 L 1460 178 L 1460 176 L 1462 173 L 1462 171 L 1463 170 L 1463 166 L 1464 165 L 1464 161 L 1465 160 L 1465 151 L 1466 150 L 1466 144 L 1465 143 L 1465 133 L 1464 132 L 1464 128 L 1463 127 L 1463 124 L 1462 123 L 1462 121 L 1460 118 L 1460 116 L 1459 115 L 1459 114 L 1458 113 L 1458 112 L 1457 111 L 1456 108 L 1454 106 L 1453 103 L 1449 99 L 1449 98 L 1439 88 L 1438 88 L 1435 85 L 1434 85 L 1431 82 L 1430 82 L 1429 81 L 1426 80 L 1424 78 L 1423 78 L 1420 76 L 1418 76 L 1415 74 L 1413 74 L 1412 73 L 1410 73 L 1409 72 L 1406 72 L 1405 71 L 1401 71 L 1400 70 L 1394 70 L 1393 69 Z
M 554 66 L 553 67 L 550 67 L 549 68 L 547 68 L 546 69 L 544 69 L 543 70 L 541 70 L 540 71 L 539 71 L 538 72 L 537 72 L 534 74 L 532 74 L 530 76 L 529 76 L 528 77 L 527 77 L 525 79 L 524 79 L 521 82 L 520 82 L 509 93 L 509 94 L 505 99 L 505 100 L 504 101 L 504 102 L 503 103 L 503 104 L 502 105 L 502 106 L 500 109 L 500 111 L 499 112 L 499 115 L 498 116 L 498 119 L 497 120 L 497 126 L 496 127 L 496 140 L 497 141 L 497 147 L 498 148 L 498 151 L 499 152 L 499 154 L 500 155 L 500 157 L 501 158 L 501 160 L 502 161 L 503 164 L 505 166 L 506 169 L 510 173 L 510 174 L 512 176 L 513 176 L 519 182 L 520 182 L 525 186 L 526 186 L 527 187 L 528 187 L 530 189 L 531 189 L 532 190 L 533 190 L 534 191 L 535 191 L 536 192 L 537 192 L 538 193 L 539 193 L 540 194 L 541 194 L 544 196 L 546 196 L 549 198 L 551 198 L 552 199 L 554 199 L 555 200 L 557 200 L 558 201 L 560 201 L 561 202 L 563 202 L 564 203 L 567 203 L 568 204 L 571 204 L 572 205 L 574 205 L 575 206 L 578 206 L 579 207 L 581 207 L 582 208 L 585 208 L 586 209 L 588 209 L 589 210 L 591 210 L 592 211 L 594 211 L 597 213 L 599 213 L 601 215 L 604 216 L 609 221 L 609 222 L 611 225 L 611 231 L 610 232 L 609 235 L 604 240 L 602 240 L 599 242 L 596 242 L 595 243 L 573 243 L 572 242 L 568 242 L 567 241 L 565 241 L 564 240 L 562 240 L 561 239 L 560 239 L 559 238 L 556 237 L 553 234 L 552 234 L 543 225 L 543 224 L 541 222 L 540 219 L 538 217 L 537 214 L 536 214 L 535 215 L 532 216 L 530 218 L 529 218 L 528 219 L 527 219 L 526 220 L 523 221 L 521 223 L 520 223 L 519 224 L 518 224 L 517 225 L 514 226 L 512 228 L 511 228 L 510 229 L 509 229 L 508 230 L 505 231 L 503 233 L 502 233 L 501 234 L 498 235 L 496 237 L 495 237 L 494 238 L 493 238 L 492 239 L 489 240 L 487 242 L 486 242 L 487 243 L 487 244 L 488 245 L 488 247 L 489 248 L 489 249 L 490 250 L 491 253 L 493 255 L 494 258 L 497 261 L 497 262 L 502 267 L 502 268 L 506 272 L 507 272 L 512 277 L 513 277 L 516 280 L 517 280 L 519 282 L 520 282 L 521 283 L 524 284 L 526 286 L 527 286 L 528 287 L 530 287 L 531 288 L 532 288 L 533 289 L 535 289 L 538 291 L 540 291 L 541 292 L 544 292 L 545 293 L 547 293 L 548 294 L 552 294 L 553 295 L 558 295 L 559 296 L 566 296 L 567 297 L 595 297 L 596 296 L 603 296 L 604 295 L 609 295 L 610 294 L 613 294 L 614 293 L 617 293 L 618 292 L 620 292 L 621 291 L 623 291 L 624 290 L 626 290 L 629 288 L 631 288 L 632 287 L 635 286 L 637 284 L 640 283 L 645 279 L 646 279 L 658 267 L 658 266 L 661 263 L 661 262 L 662 261 L 662 260 L 663 259 L 663 258 L 665 255 L 665 253 L 667 250 L 667 247 L 668 246 L 668 244 L 669 243 L 669 237 L 670 236 L 670 218 L 669 217 L 669 212 L 668 211 L 668 208 L 667 207 L 667 205 L 666 204 L 666 202 L 665 201 L 665 200 L 664 199 L 664 198 L 663 197 L 662 194 L 659 191 L 659 190 L 650 181 L 649 181 L 644 177 L 641 176 L 639 174 L 638 174 L 637 173 L 636 173 L 635 172 L 634 172 L 633 171 L 632 171 L 631 170 L 630 170 L 629 169 L 628 169 L 627 168 L 626 168 L 623 166 L 621 166 L 620 165 L 618 165 L 617 164 L 615 164 L 614 163 L 612 163 L 611 162 L 609 162 L 608 161 L 606 161 L 605 160 L 603 160 L 602 159 L 599 159 L 598 158 L 596 158 L 595 157 L 593 157 L 592 156 L 589 156 L 588 155 L 586 155 L 585 154 L 583 154 L 582 153 L 580 153 L 579 152 L 577 152 L 576 151 L 574 151 L 573 150 L 572 150 L 569 148 L 567 148 L 565 146 L 562 145 L 558 141 L 558 140 L 556 138 L 556 135 L 555 134 L 555 131 L 556 130 L 556 128 L 557 127 L 557 126 L 562 121 L 563 121 L 566 119 L 569 119 L 570 118 L 585 118 L 586 119 L 589 119 L 590 120 L 592 120 L 593 121 L 594 121 L 595 122 L 598 123 L 600 125 L 601 125 L 608 132 L 608 133 L 612 138 L 613 141 L 614 142 L 616 142 L 618 140 L 619 140 L 620 139 L 623 138 L 625 136 L 626 136 L 627 135 L 628 135 L 629 134 L 632 133 L 634 131 L 635 131 L 636 130 L 639 129 L 641 127 L 642 127 L 643 126 L 644 126 L 645 125 L 648 124 L 650 122 L 651 122 L 652 121 L 653 121 L 654 120 L 657 119 L 659 117 L 662 116 L 663 115 L 663 113 L 662 112 L 661 109 L 659 107 L 658 104 L 655 101 L 655 100 L 652 97 L 652 96 L 640 84 L 639 84 L 636 81 L 635 81 L 633 79 L 630 78 L 628 76 L 627 76 L 626 75 L 625 75 L 624 74 L 623 74 L 620 72 L 618 72 L 615 70 L 613 70 L 612 69 L 610 69 L 609 68 L 606 68 L 605 67 L 602 67 L 601 66 L 596 66 L 595 65 L 588 65 L 587 64 L 567 64 L 566 65 L 559 65 L 558 66 Z
M 1490 69 L 1490 292 L 1640 292 L 1640 240 L 1639 239 L 1550 239 L 1549 238 L 1549 207 L 1550 206 L 1629 206 L 1630 205 L 1630 154 L 1629 153 L 1550 153 L 1549 152 L 1549 123 L 1550 122 L 1637 122 L 1638 121 L 1638 69 Z
M 1900 66 L 1899 67 L 1896 67 L 1895 68 L 1893 68 L 1892 69 L 1890 69 L 1889 70 L 1887 70 L 1886 71 L 1885 71 L 1884 72 L 1883 72 L 1882 73 L 1881 73 L 1880 74 L 1879 74 L 1878 75 L 1875 76 L 1873 78 L 1870 79 L 1867 82 L 1866 82 L 1855 93 L 1855 94 L 1851 99 L 1851 100 L 1850 101 L 1850 102 L 1849 103 L 1849 104 L 1848 105 L 1848 106 L 1846 109 L 1846 111 L 1845 112 L 1845 115 L 1844 116 L 1844 119 L 1843 120 L 1843 127 L 1842 128 L 1842 139 L 1843 140 L 1843 147 L 1844 148 L 1844 151 L 1845 152 L 1845 154 L 1846 155 L 1846 157 L 1847 158 L 1847 160 L 1848 161 L 1849 164 L 1853 169 L 1853 170 L 1864 181 L 1865 181 L 1868 184 L 1869 184 L 1874 188 L 1875 188 L 1876 189 L 1877 189 L 1878 190 L 1879 190 L 1880 191 L 1881 191 L 1882 192 L 1883 192 L 1884 193 L 1885 193 L 1886 194 L 1887 194 L 1890 196 L 1892 196 L 1895 198 L 1897 198 L 1898 199 L 1900 199 L 1901 200 L 1903 200 L 1904 201 L 1906 201 L 1907 202 L 1909 202 L 1910 203 L 1913 203 L 1914 204 L 1917 204 L 1918 205 L 1920 205 L 1921 206 L 1924 206 L 1925 207 L 1927 207 L 1928 208 L 1931 208 L 1932 209 L 1934 209 L 1935 210 L 1937 210 L 1938 211 L 1940 211 L 1943 213 L 1945 213 L 1947 215 L 1950 216 L 1955 221 L 1955 222 L 1957 225 L 1957 231 L 1956 232 L 1956 234 L 1950 240 L 1948 240 L 1945 242 L 1942 242 L 1941 243 L 1919 243 L 1918 242 L 1914 242 L 1913 241 L 1911 241 L 1910 240 L 1908 240 L 1907 239 L 1906 239 L 1905 238 L 1902 237 L 1899 234 L 1898 234 L 1889 225 L 1889 224 L 1887 222 L 1887 221 L 1886 220 L 1885 217 L 1883 215 L 1883 214 L 1882 214 L 1881 215 L 1878 216 L 1876 218 L 1875 218 L 1874 219 L 1873 219 L 1872 220 L 1869 221 L 1867 223 L 1866 223 L 1865 224 L 1862 225 L 1860 227 L 1859 227 L 1858 228 L 1857 228 L 1856 229 L 1853 230 L 1851 232 L 1850 232 L 1849 233 L 1848 233 L 1847 234 L 1844 235 L 1842 237 L 1841 237 L 1840 238 L 1839 238 L 1838 239 L 1835 240 L 1833 242 L 1832 242 L 1834 245 L 1834 247 L 1835 248 L 1835 249 L 1836 250 L 1837 253 L 1839 255 L 1839 256 L 1841 258 L 1841 259 L 1843 261 L 1843 262 L 1848 267 L 1848 268 L 1851 271 L 1852 271 L 1858 277 L 1859 277 L 1862 280 L 1863 280 L 1865 282 L 1866 282 L 1867 283 L 1870 284 L 1872 286 L 1874 286 L 1875 287 L 1876 287 L 1879 289 L 1881 289 L 1884 291 L 1886 291 L 1887 292 L 1890 292 L 1891 293 L 1893 293 L 1894 294 L 1898 294 L 1899 295 L 1904 295 L 1905 296 L 1912 296 L 1913 297 L 1941 297 L 1942 296 L 1949 296 L 1950 295 L 1955 295 L 1956 294 L 1959 294 L 1960 293 L 1963 293 L 1964 292 L 1966 292 L 1967 291 L 1969 291 L 1970 290 L 1972 290 L 1975 288 L 1977 288 L 1978 287 L 1981 286 L 1983 284 L 1986 283 L 1991 279 L 1992 279 L 1997 274 L 1998 274 L 1998 273 L 2004 267 L 2004 266 L 2007 263 L 2007 262 L 2008 261 L 2008 260 L 2009 259 L 2009 258 L 2010 257 L 2010 256 L 2012 253 L 2012 251 L 2013 250 L 2013 248 L 2014 247 L 2014 244 L 2015 243 L 2015 238 L 2016 237 L 2016 218 L 2015 217 L 2015 212 L 2014 211 L 2014 208 L 2013 207 L 2013 205 L 2012 204 L 2012 202 L 2011 201 L 2011 200 L 2010 199 L 2010 198 L 2009 197 L 2008 194 L 2006 192 L 2006 191 L 1996 181 L 1995 181 L 1990 177 L 1987 176 L 1985 174 L 1984 174 L 1983 173 L 1982 173 L 1981 172 L 1980 172 L 1979 171 L 1978 171 L 1977 170 L 1976 170 L 1975 169 L 1974 169 L 1973 168 L 1972 168 L 1969 166 L 1967 166 L 1966 165 L 1964 165 L 1963 164 L 1962 164 L 1961 163 L 1959 163 L 1958 162 L 1955 162 L 1954 161 L 1952 161 L 1951 160 L 1949 160 L 1948 159 L 1945 159 L 1944 158 L 1942 158 L 1941 157 L 1939 157 L 1938 156 L 1935 156 L 1934 155 L 1932 155 L 1931 154 L 1929 154 L 1928 153 L 1926 153 L 1925 152 L 1923 152 L 1920 150 L 1918 150 L 1917 149 L 1916 149 L 1915 148 L 1914 148 L 1913 147 L 1910 146 L 1908 144 L 1907 144 L 1904 141 L 1904 140 L 1902 138 L 1902 135 L 1901 134 L 1901 131 L 1902 130 L 1902 128 L 1903 127 L 1903 126 L 1908 121 L 1909 121 L 1912 119 L 1915 119 L 1916 118 L 1931 118 L 1932 119 L 1935 119 L 1936 120 L 1938 120 L 1939 121 L 1941 121 L 1943 123 L 1944 123 L 1946 125 L 1947 125 L 1954 132 L 1954 133 L 1957 136 L 1957 137 L 1958 138 L 1959 141 L 1960 142 L 1962 142 L 1964 140 L 1965 140 L 1966 139 L 1967 139 L 1968 138 L 1971 137 L 1973 135 L 1974 135 L 1975 134 L 1978 133 L 1980 131 L 1981 131 L 1982 130 L 1983 130 L 1984 129 L 1987 128 L 1989 126 L 1990 126 L 1991 125 L 1994 124 L 1996 122 L 1997 122 L 1998 121 L 1999 121 L 2000 120 L 2003 119 L 2005 117 L 2008 116 L 2009 115 L 2009 113 L 2008 112 L 2007 109 L 2005 107 L 2004 104 L 2002 102 L 2002 101 L 1999 98 L 1999 97 L 1986 84 L 1985 84 L 1982 81 L 1981 81 L 1979 79 L 1976 78 L 1974 76 L 1973 76 L 1972 75 L 1971 75 L 1970 74 L 1969 74 L 1966 72 L 1964 72 L 1961 70 L 1959 70 L 1958 69 L 1956 69 L 1955 68 L 1952 68 L 1951 67 L 1948 67 L 1947 66 L 1942 66 L 1941 65 L 1934 65 L 1933 64 L 1913 64 L 1912 65 L 1905 65 L 1904 66 Z
M 917 69 L 917 70 L 916 71 L 916 73 L 914 76 L 914 78 L 913 79 L 913 81 L 912 82 L 912 84 L 911 85 L 911 87 L 910 88 L 910 90 L 909 91 L 909 93 L 908 94 L 908 96 L 907 97 L 907 99 L 906 100 L 906 102 L 905 103 L 905 105 L 903 108 L 903 110 L 902 111 L 902 113 L 901 114 L 901 116 L 900 117 L 900 119 L 899 120 L 899 122 L 898 123 L 898 125 L 897 126 L 897 128 L 896 129 L 896 131 L 894 134 L 894 136 L 893 137 L 893 139 L 892 140 L 892 142 L 891 143 L 891 145 L 890 146 L 890 148 L 889 149 L 889 151 L 888 152 L 888 154 L 887 155 L 887 157 L 886 158 L 886 160 L 885 161 L 885 163 L 884 164 L 884 166 L 882 169 L 882 171 L 881 172 L 881 174 L 880 175 L 880 177 L 879 178 L 879 180 L 878 181 L 878 183 L 877 184 L 877 186 L 876 187 L 876 189 L 875 190 L 875 192 L 874 193 L 874 195 L 872 198 L 872 200 L 871 201 L 871 203 L 870 204 L 870 206 L 869 207 L 869 209 L 868 210 L 868 212 L 867 213 L 867 215 L 866 216 L 866 218 L 865 219 L 865 221 L 864 222 L 864 224 L 862 227 L 862 229 L 861 230 L 861 232 L 860 233 L 860 235 L 859 236 L 859 238 L 858 239 L 858 241 L 857 242 L 857 244 L 856 245 L 856 247 L 855 248 L 855 250 L 854 251 L 854 253 L 852 256 L 852 258 L 851 259 L 851 261 L 850 262 L 850 264 L 849 265 L 849 267 L 848 268 L 848 270 L 847 271 L 847 273 L 846 274 L 846 276 L 845 277 L 845 279 L 844 280 L 844 282 L 843 283 L 843 285 L 841 288 L 841 290 L 840 291 L 840 292 L 904 292 L 904 291 L 905 290 L 905 288 L 906 287 L 906 285 L 907 284 L 907 282 L 908 281 L 908 279 L 909 278 L 909 275 L 910 274 L 910 272 L 911 271 L 911 269 L 912 268 L 912 266 L 913 265 L 913 262 L 915 260 L 950 260 L 950 253 L 949 252 L 949 247 L 948 246 L 948 243 L 947 242 L 947 240 L 946 239 L 946 237 L 945 236 L 945 235 L 944 234 L 944 233 L 943 232 L 942 229 L 940 227 L 940 226 L 937 223 L 937 222 L 931 216 L 930 216 L 926 212 L 923 211 L 921 209 L 920 209 L 917 207 L 915 207 L 912 205 L 910 205 L 909 204 L 906 204 L 905 203 L 900 203 L 899 202 L 892 202 L 891 201 L 883 201 L 882 200 L 878 200 L 877 199 L 877 197 L 879 195 L 886 195 L 887 194 L 894 194 L 895 193 L 902 193 L 903 192 L 907 192 L 908 191 L 910 191 L 911 190 L 913 190 L 914 189 L 915 189 L 918 187 L 920 187 L 922 185 L 923 185 L 924 184 L 925 184 L 927 182 L 928 182 L 939 171 L 939 170 L 941 168 L 942 165 L 944 163 L 944 162 L 945 161 L 945 159 L 946 158 L 946 156 L 947 155 L 947 152 L 948 151 L 948 149 L 949 148 L 949 143 L 950 142 L 950 135 L 951 134 L 951 127 L 953 124 L 955 124 L 957 126 L 957 133 L 958 134 L 958 141 L 959 142 L 959 147 L 960 148 L 960 152 L 961 153 L 961 155 L 962 156 L 962 158 L 963 159 L 963 160 L 964 161 L 964 162 L 965 163 L 966 166 L 968 168 L 968 169 L 971 172 L 971 173 L 978 180 L 979 180 L 982 183 L 983 183 L 985 185 L 988 186 L 990 188 L 992 188 L 993 189 L 995 189 L 998 191 L 1001 191 L 1002 192 L 1006 192 L 1007 193 L 1013 193 L 1014 194 L 1022 194 L 1023 195 L 1030 195 L 1032 197 L 1032 198 L 1030 200 L 1026 200 L 1025 201 L 1017 201 L 1016 202 L 1009 202 L 1008 203 L 1004 203 L 1003 204 L 999 204 L 996 206 L 994 206 L 993 207 L 991 207 L 990 208 L 989 208 L 987 210 L 986 210 L 985 211 L 984 211 L 982 213 L 981 213 L 977 217 L 976 217 L 973 220 L 973 221 L 968 226 L 967 229 L 965 231 L 965 232 L 963 235 L 963 237 L 961 240 L 961 243 L 960 244 L 960 247 L 959 248 L 959 254 L 958 255 L 958 260 L 992 260 L 994 263 L 994 266 L 995 267 L 995 269 L 996 270 L 996 272 L 997 273 L 997 275 L 998 276 L 998 279 L 999 280 L 999 282 L 1000 283 L 1000 285 L 1001 286 L 1001 288 L 1002 289 L 1002 291 L 1003 292 L 1066 292 L 1066 290 L 1065 289 L 1065 287 L 1063 284 L 1063 282 L 1062 281 L 1062 279 L 1061 278 L 1061 276 L 1060 275 L 1060 273 L 1059 272 L 1059 270 L 1058 269 L 1058 267 L 1057 266 L 1057 264 L 1056 263 L 1056 261 L 1055 260 L 1055 258 L 1054 257 L 1054 255 L 1052 252 L 1052 250 L 1051 249 L 1051 247 L 1050 246 L 1050 244 L 1049 243 L 1049 241 L 1048 240 L 1048 238 L 1047 237 L 1047 235 L 1046 234 L 1046 232 L 1045 231 L 1045 229 L 1044 228 L 1044 226 L 1042 223 L 1042 221 L 1041 220 L 1041 218 L 1040 217 L 1040 215 L 1039 214 L 1039 212 L 1038 211 L 1038 209 L 1037 208 L 1037 206 L 1036 205 L 1036 203 L 1035 202 L 1035 200 L 1034 199 L 1034 197 L 1032 194 L 1032 192 L 1031 191 L 1031 189 L 1030 188 L 1030 186 L 1029 185 L 1029 183 L 1028 182 L 1028 180 L 1027 179 L 1027 177 L 1026 176 L 1026 174 L 1025 173 L 1025 171 L 1024 170 L 1024 168 L 1022 165 L 1022 163 L 1021 162 L 1021 160 L 1020 159 L 1020 157 L 1019 156 L 1019 154 L 1018 153 L 1018 151 L 1017 150 L 1017 148 L 1016 147 L 1016 145 L 1015 144 L 1015 142 L 1014 141 L 1014 139 L 1013 138 L 1013 136 L 1011 133 L 1011 131 L 1010 130 L 1010 128 L 1009 127 L 1009 125 L 1008 124 L 1008 122 L 1007 121 L 1007 119 L 1006 118 L 1006 116 L 1005 115 L 1005 113 L 1004 112 L 1004 110 L 1003 109 L 1003 107 L 1002 106 L 1002 104 L 1000 101 L 1000 99 L 999 98 L 999 96 L 998 95 L 998 93 L 997 92 L 997 90 L 996 89 L 996 87 L 995 86 L 995 84 L 994 83 L 994 81 L 993 80 L 993 78 L 992 77 L 992 75 L 990 72 L 990 70 L 989 69 Z
M 1654 69 L 1654 123 L 1655 123 L 1656 124 L 1657 123 L 1708 123 L 1709 124 L 1711 124 L 1712 125 L 1712 292 L 1771 292 L 1771 125 L 1772 124 L 1774 124 L 1775 123 L 1824 123 L 1825 124 L 1826 123 L 1829 123 L 1829 69 L 1824 69 L 1823 70 L 1815 70 L 1814 71 L 1805 71 L 1804 72 L 1800 72 L 1799 73 L 1795 73 L 1794 74 L 1791 74 L 1788 76 L 1786 76 L 1785 77 L 1783 77 L 1782 78 L 1779 79 L 1777 81 L 1774 82 L 1772 84 L 1771 84 L 1768 87 L 1767 87 L 1760 94 L 1760 95 L 1757 98 L 1757 99 L 1753 104 L 1753 106 L 1752 107 L 1752 108 L 1751 109 L 1751 110 L 1749 113 L 1749 117 L 1748 118 L 1748 121 L 1747 122 L 1747 128 L 1746 129 L 1746 136 L 1745 137 L 1745 143 L 1743 146 L 1740 146 L 1739 145 L 1739 141 L 1738 140 L 1738 133 L 1737 132 L 1737 126 L 1736 125 L 1736 120 L 1735 119 L 1735 116 L 1734 115 L 1734 113 L 1733 112 L 1733 110 L 1732 109 L 1732 108 L 1731 107 L 1731 106 L 1730 105 L 1729 102 L 1727 100 L 1727 99 L 1725 97 L 1725 96 L 1715 86 L 1714 86 L 1711 83 L 1710 83 L 1708 81 L 1707 81 L 1706 80 L 1705 80 L 1704 79 L 1703 79 L 1702 78 L 1701 78 L 1698 76 L 1696 76 L 1695 75 L 1693 75 L 1692 74 L 1690 74 L 1689 73 L 1685 73 L 1684 72 L 1679 72 L 1678 71 L 1670 71 L 1669 70 L 1660 70 L 1659 69 Z
M 679 69 L 679 123 L 736 123 L 737 124 L 737 292 L 796 292 L 796 125 L 798 123 L 854 123 L 854 69 L 850 69 L 849 70 L 840 70 L 839 71 L 831 71 L 830 72 L 825 72 L 824 73 L 820 73 L 819 74 L 817 74 L 816 75 L 814 75 L 813 76 L 811 76 L 810 77 L 809 77 L 808 78 L 807 78 L 806 79 L 805 79 L 804 80 L 803 80 L 802 81 L 799 82 L 796 85 L 795 85 L 783 97 L 783 98 L 781 100 L 781 101 L 779 103 L 779 104 L 778 105 L 778 107 L 777 108 L 777 109 L 775 112 L 775 114 L 774 115 L 774 119 L 773 120 L 773 123 L 772 124 L 772 131 L 771 132 L 771 139 L 770 140 L 770 144 L 768 146 L 766 146 L 764 144 L 764 138 L 763 137 L 763 130 L 762 129 L 762 123 L 761 122 L 761 119 L 760 118 L 760 114 L 758 111 L 758 109 L 757 108 L 757 107 L 756 106 L 755 103 L 751 98 L 751 97 L 746 92 L 746 91 L 743 88 L 742 88 L 739 85 L 738 85 L 735 82 L 734 82 L 733 81 L 730 80 L 728 78 L 727 78 L 726 77 L 724 77 L 723 76 L 721 76 L 720 75 L 718 75 L 717 74 L 715 74 L 714 73 L 710 73 L 709 72 L 704 72 L 703 71 L 695 71 L 694 70 L 686 70 L 685 69 Z
M 1143 122 L 1144 121 L 1182 121 L 1183 122 L 1186 122 L 1187 123 L 1188 123 L 1189 124 L 1192 125 L 1198 131 L 1198 132 L 1200 134 L 1200 136 L 1201 137 L 1201 139 L 1202 140 L 1202 154 L 1201 155 L 1201 157 L 1200 158 L 1199 161 L 1191 169 L 1190 169 L 1189 170 L 1187 170 L 1186 171 L 1184 171 L 1183 172 L 1144 172 L 1143 171 Z
M 1351 124 L 1352 123 L 1388 123 L 1389 124 L 1391 124 L 1392 125 L 1395 126 L 1398 129 L 1399 129 L 1401 131 L 1401 132 L 1404 135 L 1404 136 L 1405 137 L 1405 139 L 1406 140 L 1406 146 L 1407 147 L 1407 148 L 1406 149 L 1406 154 L 1405 155 L 1405 157 L 1404 158 L 1404 159 L 1402 161 L 1402 162 L 1397 167 L 1396 167 L 1394 169 L 1393 169 L 1392 170 L 1390 170 L 1389 171 L 1352 171 L 1351 170 Z"/>
  </g>
</svg>